<svg width="400" height="300" viewBox="0 0 400 300" xmlns="http://www.w3.org/2000/svg">
  <defs>
    <linearGradient id="bgGradient" x1="0%" y1="0%" x2="100%" y2="100%">
      <stop offset="0%" style="stop-color:#667eea;stop-opacity:1" />
      <stop offset="100%" style="stop-color:#764ba2;stop-opacity:1" />
    </linearGradient>
    <linearGradient id="nodeGradient" x1="0%" y1="0%" x2="100%" y2="100%">
      <stop offset="0%" style="stop-color:#4facfe;stop-opacity:1" />
      <stop offset="100%" style="stop-color:#00f2fe;stop-opacity:1" />
    </linearGradient>
    <linearGradient id="pythonGradient" x1="0%" y1="0%" x2="100%" y2="100%">
      <stop offset="0%" style="stop-color:#fbbc88;stop-opacity:1" />
      <stop offset="100%" style="stop-color:#f57c00;stop-opacity:1" />
    </linearGradient>
    <linearGradient id="aiGlow" x1="0%" y1="0%" x2="100%" y2="100%">
      <stop offset="0%" style="stop-color:#f093fb;stop-opacity:1" />
      <stop offset="100%" style="stop-color:#f5576c;stop-opacity:1" />
    </linearGradient>
    <filter id="glow">
      <feGaussianBlur stdDeviation="4" result="coloredBlur"/>
      <feMerge> 
        <feMergeNode in="coloredBlur"/>
        <feMergeNode in="SourceGraphic"/>
      </feMerge>
    </filter>
  </defs>
  
  <!-- Background -->
  <rect width="400" height="300" fill="url(#bgGradient)"/>
  
  <!-- Pulsing AI brain -->
  <g transform="translate(200,80)">
    <circle cx="0" cy="0" r="50" fill="#ffffff" opacity="0.3">
      <animate attributeName="r" values="45;55;45" dur="4s" repeatCount="indefinite"/>
    </circle>
    <path d="M-30,-10 Q0,-50,30,-10 Q50,20,30,50 Q0,70,-30,50 Q-50,20,-30,-10Z" fill="url(#aiGlow)" stroke="#ffffff" stroke-width="2" filter="url(#glow)"/>
    <path d="M-10,-30 Q0,-50,10,-30 Q20,-10,10,-5 Q0,5,-10,-5 Q-20,-10,-10,-30Z" fill="#ffffff" opacity="0.7"/>
  </g>
  
  <!-- Moving data lines -->
  <g transform="translate(200,150)">
    <path d="M0,0 L-40,60" stroke="#ffffff" stroke-width="2" stroke-dasharray="5,5" opacity="0.5">
      <animate attributeName="stroke-dashoffset" values="0;20" dur="3s" repeatCount="indefinite"/>
    </path>
    <path d="M0,0 L40,60" stroke="#ffffff" stroke-width="2" stroke-dasharray="5,5" opacity="0.5">
      <animate attributeName="stroke-dashoffset" values="0;20" dur="3s" repeatCount="indefinite"/>
    </path>
    <path d="M-40,60 L40,60" stroke="#ffffff" stroke-width="2" stroke-dasharray="5,5" opacity="0.5">
      <animate attributeName="stroke-dashoffset" values="0;20" dur="3s" repeatCount="indefinite"/>
    </path>
  </g>
  
  <!-- Node.js Server Icon -->
  <g transform="translate(50,230)">
    <rect x="-20" y="-20" width="40" height="40" fill="url(#nodeGradient)" rx="10"/>
    <circle cx="0" cy="0" r="4" fill="#ffffff"/>
    <rect x="-10" y="-2" width="20" height="4" fill="#ffffff"/>
  </g>
  
  <!-- Python AI Gear -->
  <g transform="translate(350,230)">
    <circle cx="0" cy="0" r="20" fill="#fbbc88"/>
    <path d="M-14,0 L14,0 M0,-14 L0,14" stroke="#ffffff" stroke-width="2"/>
    <path d="M-10,-10 L10,10 M10,-10 L-10,10" stroke="#f57c00" stroke-width="2"/>
    <circle cx="0" cy="0" r="2" fill="#f57c00"/>
    <path d="M-16,-8 L-6,-8 L-6,-6 L-16,-6 Z" fill="#fbbc88"/>
    <path d="M16,-8 L6,-8 L6,-6 L16,-6 Z" fill="#fbbc88"/>
  </g>
  
  <!-- Orbiting satellites -->
  <g transform="translate(200,80)">
    <circle cx="-70" cy="0" r="5" fill="#ffffff" opacity="0.8">
      <animateMotion dur="6s" repeatCount="indefinite">
        <mpath xlink:href="#orbitPath"/>
      </animateMotion>
    </circle>
    <circle cx="70" cy="0" r="4" fill="#ffffff" opacity="0.6">
      <animateMotion dur="4s" repeatCount="indefinite">
        <mpath xlink:href="#orbitPath"/>
      </animateMotion>
    </circle>
    <circle cx="0" cy="70" r="5" fill="#ffffff" opacity="0.7">
      <animateMotion dur="5s" repeatCount="indefinite">
        <mpath xlink:href="#orbitPath"/>
      </animateMotion>
    </circle>
  </g>
  <path id="orbitPath" d="M-70,0 A70,70 0 1,1 70,0 A70,70 0 1,1 -70,0" fill="none"/>
  
  <!-- AI neural paths -->
  <g transform="translate(200,80)">
    <path d="M0,-40 Q-45,-45,-40,0" stroke="#ffffff" stroke-width="1"/>
    <path d="M0,-40 Q45,-45,40,0" stroke="#ffffff" stroke-width="1"/>
    <path d="M0,40 Q-45,45,-40,0" stroke="#ffffff" stroke-width="1"/>
    <path d="M0,40 Q45,45,40,0" stroke="#ffffff" stroke-width="1"/>
  </g>

  <!-- Distant stars -->
  <g transform="translate(200,150)" fill="#ffffff" opacity="0.6">
    <circle cx="-150" cy="-100" r="1.5"/>
    <circle cx="100" cy="-130" r="1"/>
    <circle cx="130" cy="80" r="1.2"/>
  </g>

</svg>

