<svg width="400" height="300" viewBox="0 0 400 300" xmlns="http://www.w3.org/2000/svg">
  <defs>
    <linearGradient id="bgGradient" x1="0%" y1="0%" x2="100%" y2="100%">
      <stop offset="0%" style="stop-color:#667eea;stop-opacity:1" />
      <stop offset="100%" style="stop-color:#764ba2;stop-opacity:1" />
    </linearGradient>
    <linearGradient id="screenGradient" x1="0%" y1="0%" x2="100%" y2="100%">
      <stop offset="0%" style="stop-color:#4facfe;stop-opacity:1" />
      <stop offset="100%" style="stop-color:#00f2fe;stop-opacity:1" />
    </linearGradient>
    <linearGradient id="bookGradient" x1="0%" y1="0%" x2="100%" y2="100%">
      <stop offset="0%" style="stop-color:#f093fb;stop-opacity:1" />
      <stop offset="100%" style="stop-color:#f5576c;stop-opacity:1" />
    </linearGradient>
    <filter id="glow">
      <feGaussianBlur stdDeviation="3" result="coloredBlur"/>
      <feMerge> 
        <feMergeNode in="coloredBlur"/>
        <feMergeNode in="SourceGraphic"/>
      </feMerge>
    </filter>
    <filter id="shadow">
      <feDropShadow dx="2" dy="2" stdDeviation="3" flood-color="#000000" flood-opacity="0.3"/>
    </filter>
  </defs>
  
  <!-- Background -->
  <rect width="400" height="300" fill="url(#bgGradient)"/>
  
  <!-- Floating knowledge particles -->
  <g opacity="0.6">
    <circle cx="80" cy="60" r="3" fill="#ffffff">
      <animate attributeName="cy" values="60;40;60" dur="4s" repeatCount="indefinite"/>
    </circle>
    <circle cx="320" cy="80" r="2" fill="#ffffff">
      <animate attributeName="cy" values="80;60;80" dur="3s" repeatCount="indefinite"/>
    </circle>
    <circle cx="350" cy="220" r="2.5" fill="#ffffff">
      <animate attributeName="cy" values="220;200;220" dur="3.5s" repeatCount="indefinite"/>
    </circle>
  </g>
  
  <!-- Laptop/Computer Screen -->
  <g transform="translate(50,50)">
    <!-- Laptop base -->
    <rect x="0" y="160" width="300" height="20" rx="10" fill="#2c3e50" filter="url(#shadow)"/>
    <!-- Screen -->
    <rect x="30" y="30" width="240" height="150" rx="15" fill="#34495e" stroke="#ffffff" stroke-width="2"/>
    <rect x="40" y="40" width="220" height="130" rx="8" fill="url(#screenGradient)"/>
    
    <!-- Video call interface on screen -->
    <!-- Main video window -->
    <rect x="50" y="50" width="120" height="80" rx="5" fill="#ffffff" stroke="#667eea" stroke-width="1"/>
    <!-- Mentor avatar -->
    <circle cx="110" cy="80" r="20" fill="#f5576c"/>
    <circle cx="110" cy="75" r="8" fill="#ffffff"/>
    <path d="M95 95 Q110 85, 125 95" fill="#ffffff"/>
    <!-- Graduation cap on mentor -->
    <rect x="105" y="65" width="10" height="3" fill="#2c3e50"/>
    <polygon points="100,65 120,65 115,60 105,60" fill="#2c3e50"/>
    
    <!-- Student video windows -->
    <rect x="180" y="50" width="40" height="30" rx="3" fill="#ffffff" stroke="#4facfe" stroke-width="1"/>
    <circle cx="200" cy="65" r="8" fill="#667eea"/>
    
    <rect x="180" y="90" width="40" height="30" rx="3" fill="#ffffff" stroke="#4facfe" stroke-width="1"/>
    <circle cx="200" cy="105" r="8" fill="#f093fb"/>
    
    <rect x="180" y="130" width="40" height="30" rx="3" fill="#ffffff" stroke="#4facfe" stroke-width="1"/>
    <circle cx="200" cy="145" r="8" fill="#764ba2"/>
    
    <!-- Chat/Notes section -->
    <rect x="230" y="50" width="50" height="110" rx="5" fill="#ffffff" stroke="#00f2fe" stroke-width="1"/>
    <!-- Chat lines -->
    <rect x="235" y="60" width="30" height="2" fill="#4facfe"/>
    <rect x="235" y="70" width="25" height="2" fill="#667eea"/>
    <rect x="235" y="80" width="35" height="2" fill="#f5576c"/>
    <rect x="235" y="90" width="20" height="2" fill="#4facfe"/>
    <!-- Notes icon -->
    <rect x="235" y="110" width="15" height="20" fill="#f093fb" rx="2"/>
    <rect x="238" y="115" width="9" height="1" fill="#ffffff"/>
    <rect x="238" y="120" width="6" height="1" fill="#ffffff"/>
    <rect x="238" y="125" width="8" height="1" fill="#ffffff"/>
  </g>
  
  <!-- Books stack -->
  <g transform="translate(30,180)">
    <!-- Book 1 -->
    <rect x="0" y="0" width="60" height="8" fill="#f5576c" rx="2" filter="url(#shadow)"/>
    <rect x="5" y="2" width="50" height="4" fill="#ffffff" opacity="0.8"/>
    <!-- Book 2 -->
    <rect x="5" y="-10" width="55" height="8" fill="#4facfe" rx="2" filter="url(#shadow)"/>
    <rect x="10" y="-8" width="45" height="4" fill="#ffffff" opacity="0.8"/>
    <!-- Book 3 -->
    <rect x="10" y="-20" width="50" height="8" fill="#667eea" rx="2" filter="url(#shadow)"/>
    <rect x="15" y="-18" width="40" height="4" fill="#ffffff" opacity="0.8"/>
  </g>
  
  <!-- Floating learning elements -->
  <g transform="translate(300,120)">
    <!-- Lightbulb for ideas -->
    <circle cx="0" cy="0" r="12" fill="#f093fb" stroke="#ffffff" stroke-width="2" filter="url(#glow)"/>
    <path d="M-5 -8 L5 -8 M-3 -4 L3 -4 M-5 0 L5 0" stroke="#ffffff" stroke-width="1"/>
    <rect x="-3" y="5" width="6" height="3" fill="#ffffff" rx="1"/>
    <!-- Pulsing animation -->
    <animate attributeName="opacity" values="0.7;1;0.7" dur="2s" repeatCount="indefinite"/>
  </g>
  
  <!-- Knowledge transfer arrows -->
  <g transform="translate(150,200)" opacity="0.8">
    <path d="M0 0 L30 0" stroke="#ffffff" stroke-width="3" marker-end="url(#arrowhead)"/>
    <path d="M35 -5 L50 0 L35 5" fill="#ffffff"/>
    <animateTransform attributeName="transform" type="translate" values="150,200;170,200;150,200" dur="3s" repeatCount="indefinite"/>
  </g>
  
  <!-- Certificate/Achievement badge -->
  <g transform="translate(330,180)">
    <circle cx="0" cy="0" r="25" fill="#f5576c" stroke="#ffffff" stroke-width="3" filter="url(#glow)"/>
    <polygon points="-8,-8 0,-15 8,-8 15,0 8,8 0,15 -8,8 -15,0" fill="#ffffff"/>
    <text x="0" y="3" text-anchor="middle" fill="#f5576c" font-family="Arial, sans-serif" font-size="12" font-weight="bold">✓</text>
  </g>
  
  <!-- Mentor and student connection lines -->
  <g opacity="0.4">
    <path d="M160 130 Q200 100, 240 130" stroke="#ffffff" stroke-width="2" fill="none" stroke-dasharray="5,5">
      <animate attributeName="stroke-dashoffset" values="0;10;0" dur="2s" repeatCount="indefinite"/>
    </path>
    <path d="M160 130 Q200 160, 240 130" stroke="#ffffff" stroke-width="2" fill="none" stroke-dasharray="5,5">
      <animate attributeName="stroke-dashoffset" values="0;-10;0" dur="2s" repeatCount="indefinite"/>
    </path>
  </g>
  
  <!-- Graduation cap floating -->
  <g transform="translate(80,40)">
    <rect x="0" y="0" width="30" height="6" fill="#2c3e50" rx="3"/>
    <polygon points="-5,0 35,0 25,-8 5,-8" fill="#2c3e50"/>
    <circle cx="30" cy="-4" r="2" fill="#f5576c"/>
    <path d="M30 -4 L35 -10" stroke="#f5576c" stroke-width="1"/>
    <animateTransform attributeName="transform" type="translate" values="80,40;85,35;80,40" dur="4s" repeatCount="indefinite"/>
  </g>
  
  <!-- Progress bars -->
  <g transform="translate(320,60)" opacity="0.7">
    <!-- Progress bar 1 -->
    <rect x="0" y="0" width="50" height="4" fill="#ffffff" opacity="0.3" rx="2"/>
    <rect x="0" y="0" width="35" height="4" fill="#4facfe" rx="2">
      <animate attributeName="width" values="0;35;0" dur="3s" repeatCount="indefinite"/>
    </rect>
    <!-- Progress bar 2 -->
    <rect x="0" y="8" width="50" height="4" fill="#ffffff" opacity="0.3" rx="2"/>
    <rect x="0" y="8" width="45" height="4" fill="#f5576c" rx="2">
      <animate attributeName="width" values="0;45;0" dur="4s" repeatCount="indefinite"/>
    </rect>
    <!-- Progress bar 3 -->
    <rect x="0" y="16" width="50" height="4" fill="#ffffff" opacity="0.3" rx="2"/>
    <rect x="0" y="16" width="30" height="4" fill="#f093fb" rx="2">
      <animate attributeName="width" values="0;30;0" dur="2.5s" repeatCount="indefinite"/>
    </rect>
  </g>
  
</svg>
