<svg width="400" height="300" viewBox="0 0 400 300" xmlns="http://www.w3.org/2000/svg">
  <defs>
    <linearGradient id="bgGradient" x1="0%" y1="0%" x2="100%" y2="100%">
      <stop offset="0%" style="stop-color:#667eea;stop-opacity:1" />
      <stop offset="100%" style="stop-color:#764ba2;stop-opacity:1" />
    </linearGradient>
    <linearGradient id="quantumGradient" x1="0%" y1="0%" x2="100%" y2="100%">
      <stop offset="0%" style="stop-color:#4facfe;stop-opacity:1" />
      <stop offset="100%" style="stop-color:#00f2fe;stop-opacity:1" />
    </linearGradient>
    <linearGradient id="chartGradient" x1="0%" y1="0%" x2="100%" y2="100%">
      <stop offset="0%" style="stop-color:#f093fb;stop-opacity:1" />
      <stop offset="100%" style="stop-color:#f5576c;stop-opacity:1" />
    </linearGradient>
    <linearGradient id="dataGradient" x1="0%" y1="0%" x2="100%" y2="100%">
      <stop offset="0%" style="stop-color:#fbbc88;stop-opacity:1" />
      <stop offset="100%" style="stop-color:#f57c00;stop-opacity:1" />
    </linearGradient>
    <filter id="glow">
      <feGaussianBlur stdDeviation="4" result="coloredBlur"/>
      <feMerge> 
        <feMergeNode in="coloredBlur"/>
        <feMergeNode in="SourceGraphic"/>
      </feMerge>
    </filter>
    <filter id="quantumBlur">
      <feGaussianBlur stdDeviation="2" result="coloredBlur"/>
      <feMerge> 
        <feMergeNode in="coloredBlur"/>
        <feMergeNode in="SourceGraphic"/>
      </feMerge>
    </filter>
  </defs>
  
  <!-- Background -->
  <rect width="400" height="300" fill="url(#bgGradient)"/>
  
  <!-- Quantum particles -->
  <g opacity="0.7">
    <circle cx="50" cy="50" r="2" fill="#ffffff">
      <animate attributeName="cy" values="50;30;50" dur="3s" repeatCount="indefinite"/>
      <animate attributeName="opacity" values="0.3;1;0.3" dur="2s" repeatCount="indefinite"/>
    </circle>
    <circle cx="350" cy="80" r="1.5" fill="#4facfe">
      <animate attributeName="cy" values="80;60;80" dur="2.5s" repeatCount="indefinite"/>
      <animate attributeName="opacity" values="0.5;1;0.5" dur="3s" repeatCount="indefinite"/>
    </circle>
    <circle cx="100" cy="250" r="1" fill="#f5576c">
      <animate attributeName="cy" values="250;230;250" dur="2s" repeatCount="indefinite"/>
      <animate attributeName="opacity" values="0.4;1;0.4" dur="2.5s" repeatCount="indefinite"/>
    </circle>
  </g>
  
  <!-- Main dashboard screen -->
  <g transform="translate(50,50)">
    <!-- Screen frame -->
    <rect x="0" y="0" width="300" height="200" rx="15" fill="#2c3e50" stroke="#ffffff" stroke-width="3"/>
    <rect x="10" y="10" width="280" height="180" rx="10" fill="#34495e"/>
    
    <!-- Dashboard content -->
    <rect x="20" y="20" width="260" height="160" rx="8" fill="url(#quantumGradient)" filter="url(#quantumBlur)"/>
    
    <!-- Quantum wave visualization -->
    <g transform="translate(30,30)">
      <path d="M0 80 Q60 20, 120 80 T240 80" stroke="#ffffff" stroke-width="3" fill="none" opacity="0.8">
        <animate attributeName="d" values="M0 80 Q60 20, 120 80 T240 80;M0 80 Q60 140, 120 80 T240 80;M0 80 Q60 20, 120 80 T240 80" dur="4s" repeatCount="indefinite"/>
      </path>
      <path d="M0 80 Q60 50, 120 80 T240 80" stroke="#f5576c" stroke-width="2" fill="none" opacity="0.6">
        <animate attributeName="d" values="M0 80 Q60 50, 120 80 T240 80;M0 80 Q60 110, 120 80 T240 80;M0 80 Q60 50, 120 80 T240 80" dur="3s" repeatCount="indefinite"/>
      </path>
    </g>
    
    <!-- Data visualization charts -->
    <!-- Bar chart -->
    <g transform="translate(40,120)">
      <rect x="0" y="20" width="8" height="40" fill="#ffffff" opacity="0.8">
        <animate attributeName="height" values="40;60;40" dur="3s" repeatCount="indefinite"/>
      </rect>
      <rect x="15" y="30" width="8" height="30" fill="#f5576c" opacity="0.8">
        <animate attributeName="height" values="30;50;30" dur="2.5s" repeatCount="indefinite"/>
      </rect>
      <rect x="30" y="10" width="8" height="50" fill="#4facfe" opacity="0.8">
        <animate attributeName="height" values="50;70;50" dur="3.5s" repeatCount="indefinite"/>
      </rect>
      <rect x="45" y="25" width="8" height="35" fill="#f093fb" opacity="0.8">
        <animate attributeName="height" values="35;55;35" dur="2.8s" repeatCount="indefinite"/>
      </rect>
    </g>
    
    <!-- Pie chart -->
    <g transform="translate(200,140)">
      <circle cx="0" cy="0" r="25" fill="#ffffff" opacity="0.2"/>
      <path d="M0,-25 A25,25 0 0,1 17.7,-17.7 L0,0 Z" fill="#4facfe" opacity="0.9"/>
      <path d="M17.7,-17.7 A25,25 0 0,1 17.7,17.7 L0,0 Z" fill="#f5576c" opacity="0.9"/>
      <path d="M17.7,17.7 A25,25 0 1,1 -17.7,17.7 L0,0 Z" fill="#f093fb" opacity="0.9"/>
      <path d="M-17.7,17.7 A25,25 0 0,1 0,-25 L0,0 Z" fill="#fbbc88" opacity="0.9"/>
      <animateTransform attributeName="transform" type="rotate" values="0 200 140;360 200 140" dur="20s" repeatCount="indefinite"/>
    </g>
    
    <!-- Real-time data indicators -->
    <g transform="translate(250,40)">
      <circle cx="0" cy="0" r="5" fill="#4facfe">
        <animate attributeName="r" values="3;8;3" dur="2s" repeatCount="indefinite"/>
        <animate attributeName="opacity" values="1;0.3;1" dur="2s" repeatCount="indefinite"/>
      </circle>
      <circle cx="0" cy="15" r="5" fill="#f5576c">
        <animate attributeName="r" values="3;8;3" dur="1.5s" repeatCount="indefinite"/>
        <animate attributeName="opacity" values="1;0.3;1" dur="1.5s" repeatCount="indefinite"/>
      </circle>
      <circle cx="0" cy="30" r="5" fill="#f093fb">
        <animate attributeName="r" values="3;8;3" dur="2.5s" repeatCount="indefinite"/>
        <animate attributeName="opacity" values="1;0.3;1" dur="2.5s" repeatCount="indefinite"/>
      </circle>
    </g>
    
    <!-- Progress indicators -->
    <g transform="translate(150,160)">
      <rect x="0" y="0" width="100" height="6" fill="#ffffff" opacity="0.3" rx="3"/>
      <rect x="0" y="0" width="70" height="6" fill="url(#chartGradient)" rx="3">
        <animate attributeName="width" values="0;90;70" dur="4s" repeatCount="indefinite"/>
      </rect>
      <rect x="0" y="10" width="100" height="6" fill="#ffffff" opacity="0.3" rx="3"/>
      <rect x="0" y="10" width="85" height="6" fill="url(#quantumGradient)" rx="3">
        <animate attributeName="width" values="0;100;85" dur="3.5s" repeatCount="indefinite"/>
      </rect>
    </g>
  </g>
  
  <!-- Floating data nodes -->
  <g transform="translate(80,180)">
    <circle cx="0" cy="0" r="8" fill="url(#dataGradient)" stroke="#ffffff" stroke-width="2" filter="url(#glow)">
      <animateTransform attributeName="transform" type="translate" values="80,180;100,160;80,180" dur="4s" repeatCount="indefinite"/>
    </circle>
    <text x="0" y="3" text-anchor="middle" fill="#ffffff" font-family="Arial, sans-serif" font-size="8" font-weight="bold">D3</text>
  </g>
  
  <!-- WebGL visualization -->
  <g transform="translate(320,180)">
    <polygon points="0,-15 13,7.5 -13,7.5" fill="url(#quantumGradient)" stroke="#ffffff" stroke-width="2" filter="url(#glow)">
      <animateTransform attributeName="transform" type="rotate" values="0 320 180;360 320 180" dur="6s" repeatCount="indefinite"/>
    </polygon>
    <text x="0" y="25" text-anchor="middle" fill="#ffffff" font-family="Arial, sans-serif" font-size="8" font-weight="bold">WebGL</text>
  </g>
  
  <!-- Kafka data stream -->
  <g transform="translate(200,280)">
    <rect x="-30" y="-8" width="60" height="16" fill="#f5576c" rx="8" stroke="#ffffff" stroke-width="2"/>
    <text x="0" y="3" text-anchor="middle" fill="#ffffff" font-family="Arial, sans-serif" font-size="10" font-weight="bold">KAFKA</text>
    <!-- Data flow indicators -->
    <circle cx="-40" cy="0" r="2" fill="#ffffff">
      <animate attributeName="cx" values="-40;40;-40" dur="3s" repeatCount="indefinite"/>
    </circle>
    <circle cx="-35" cy="0" r="1.5" fill="#4facfe">
      <animate attributeName="cx" values="-35;35;-35" dur="2.8s" repeatCount="indefinite"/>
    </circle>
  </g>
  
  <!-- Quantum entanglement visualization -->
  <g opacity="0.6">
    <path d="M100 100 Q200 50, 300 100" stroke="#ffffff" stroke-width="1" fill="none" stroke-dasharray="3,3">
      <animate attributeName="stroke-dashoffset" values="0;12" dur="2s" repeatCount="indefinite"/>
    </path>
    <path d="M100 200 Q200 250, 300 200" stroke="#4facfe" stroke-width="1" fill="none" stroke-dasharray="3,3">
      <animate attributeName="stroke-dashoffset" values="0;12" dur="1.5s" repeatCount="indefinite"/>
    </path>
  </g>
  
  <!-- Analytics brain -->
  <g transform="translate(60,80)">
    <circle cx="0" cy="0" r="12" fill="url(#chartGradient)" stroke="#ffffff" stroke-width="2" filter="url(#glow)" opacity="0.8">
      <animate attributeName="r" values="10;15;10" dur="3s" repeatCount="indefinite"/>
    </circle>
    <path d="M-6,-3 L6,-3 M-3,0 L3,0 M-6,3 L6,3" stroke="#ffffff" stroke-width="1"/>
  </g>
  
  <!-- Pattern recognition matrix -->
  <g transform="translate(340,80)" opacity="0.7">
    <rect x="-15" y="-15" width="30" height="30" fill="none" stroke="#ffffff" stroke-width="1"/>
    <circle cx="-7" cy="-7" r="1" fill="#4facfe"/>
    <circle cx="0" cy="-7" r="1" fill="#f5576c"/>
    <circle cx="7" cy="-7" r="1" fill="#f093fb"/>
    <circle cx="-7" cy="0" r="1" fill="#f093fb"/>
    <circle cx="0" cy="0" r="1" fill="#4facfe"/>
    <circle cx="7" cy="0" r="1" fill="#f5576c"/>
    <circle cx="-7" cy="7" r="1" fill="#f5576c"/>
    <circle cx="0" cy="7" r="1" fill="#f093fb"/>
    <circle cx="7" cy="7" r="1" fill="#4facfe"/>
    <animateTransform attributeName="transform" type="rotate" values="0 340 80;360 340 80" dur="8s" repeatCount="indefinite"/>
  </g>
  
</svg>
