<svg width="400" height="300" viewBox="0 0 400 300" xmlns="http://www.w3.org/2000/svg">
  <defs>
    <linearGradient id="bgGradient" x1="0%" y1="0%" x2="100%" y2="100%">
      <stop offset="0%" style="stop-color:#667eea;stop-opacity:1" />
      <stop offset="100%" style="stop-color:#764ba2;stop-opacity:1" />
    </linearGradient>
    <linearGradient id="shirtGradient" x1="0%" y1="0%" x2="100%" y2="100%">
      <stop offset="0%" style="stop-color:#f093fb;stop-opacity:1" />
      <stop offset="100%" style="stop-color:#f5576c;stop-opacity:1" />
    </linearGradient>
    <linearGradient id="cardGradient" x1="0%" y1="0%" x2="100%" y2="100%">
      <stop offset="0%" style="stop-color:#4facfe;stop-opacity:1" />
      <stop offset="100%" style="stop-color:#00f2fe;stop-opacity:1" />
    </linearGradient>
    <filter id="glow">
      <feGaussianBlur stdDeviation="3" result="coloredBlur"/>
      <feMerge> 
        <feMergeNode in="coloredBlur"/>
        <feMergeNode in="SourceGraphic"/>
      </feMerge>
    </filter>
  </defs>
  
  <!-- Background -->
  <rect width="400" height="300" fill="url(#bgGradient)"/>
  
  <!-- Floating particles -->
  <circle cx="50" cy="50" r="2" fill="#ffffff" opacity="0.6">
    <animate attributeName="cy" values="50;30;50" dur="3s" repeatCount="indefinite"/>
  </circle>
  <circle cx="350" cy="80" r="1.5" fill="#ffffff" opacity="0.4">
    <animate attributeName="cy" values="80;60;80" dur="2.5s" repeatCount="indefinite"/>
  </circle>
  <circle cx="100" cy="250" r="1" fill="#ffffff" opacity="0.3">
    <animate attributeName="cy" values="250;230;250" dur="2s" repeatCount="indefinite"/>
  </circle>
  
  <!-- T-shirt design -->
  <g transform="translate(80,40)">
    <!-- T-shirt body -->
    <path d="M40 60 L40 180 L160 180 L160 60 L140 60 L140 40 L60 40 L60 60 Z" 
          fill="url(#shirtGradient)" stroke="#ffffff" stroke-width="2" filter="url(#glow)"/>
    <!-- T-shirt sleeves -->
    <path d="M40 60 L20 80 L20 120 L40 100 Z" fill="url(#shirtGradient)" stroke="#ffffff" stroke-width="1"/>
    <path d="M160 60 L180 80 L180 120 L160 100 Z" fill="url(#shirtGradient)" stroke="#ffffff" stroke-width="1"/>
    <!-- T-shirt design -->
    <text x="100" y="120" text-anchor="middle" fill="#ffffff" font-family="Arial, sans-serif" font-size="16" font-weight="bold">T</text>
  </g>
  
  <!-- Shopping cart -->
  <g transform="translate(250,140)">
    <!-- Cart body -->
    <rect x="10" y="20" width="60" height="40" rx="5" fill="#ffffff" stroke="#4facfe" stroke-width="2"/>
    <!-- Cart handle -->
    <path d="M5 10 L15 10 L20 20 L10 20 Z" fill="none" stroke="#4facfe" stroke-width="3" stroke-linecap="round"/>
    <!-- Cart wheels -->
    <circle cx="25" cy="70" r="8" fill="#4facfe"/>
    <circle cx="55" cy="70" r="8" fill="#4facfe"/>
    <!-- Cart items -->
    <rect x="20" y="25" width="8" height="15" fill="#f5576c"/>
    <rect x="35" y="28" width="8" height="12" fill="#667eea"/>
    <rect x="50" y="30" width="8" height="10" fill="#f093fb"/>
  </g>
  
  <!-- Credit card -->
  <g transform="translate(280,60)">
    <rect x="0" y="0" width="80" height="50" rx="8" fill="url(#cardGradient)" filter="url(#glow)"/>
    <rect x="0" y="15" width="80" height="8" fill="#ffffff" opacity="0.3"/>
    <circle cx="65" cy="35" r="8" fill="#ffffff" opacity="0.8"/>
    <circle cx="55" cy="35" r="8" fill="#ffffff" opacity="0.6"/>
    <text x="10" y="45" fill="#ffffff" font-family="monospace" font-size="8">**** ****</text>
  </g>
  
  <!-- Shopping bag -->
  <g transform="translate(60,180)">
    <rect x="0" y="15" width="40" height="45" rx="5" fill="#764ba2" stroke="#ffffff" stroke-width="2"/>
    <path d="M10 15 C10 5, 30 5, 30 15" fill="none" stroke="#ffffff" stroke-width="2"/>
    <rect x="5" y="25" width="30" height="3" fill="#f5576c"/>
    <rect x="5" y="35" width="30" height="3" fill="#4facfe"/>
  </g>
  
  <!-- Decorative elements -->
  <g transform="translate(320,200)">
    <path d="M0 0 L20 10 L0 20 L10 10 Z" fill="#ffffff" opacity="0.7">
      <animateTransform attributeName="transform" type="rotate" values="0 10 10;360 10 10" dur="4s" repeatCount="indefinite"/>
    </path>
  </g>
  
  <!-- Price tags -->
  <g transform="translate(150,200)">
    <rect x="0" y="0" width="30" height="20" rx="3" fill="#f5576c" stroke="#ffffff" stroke-width="1"/>
    <text x="15" y="13" text-anchor="middle" fill="#ffffff" font-family="Arial, sans-serif" font-size="10" font-weight="bold">$</text>
    <circle cx="5" cy="5" r="2" fill="#ffffff"/>
  </g>
  
  <!-- Payment success checkmark -->
  <g transform="translate(180,80)">
    <circle cx="0" cy="0" r="15" fill="#4facfe" stroke="#ffffff" stroke-width="2" opacity="0.9"/>
    <path d="M-8 -2 L-2 4 L8 -6" fill="none" stroke="#ffffff" stroke-width="3" stroke-linecap="round" stroke-linejoin="round"/>
  </g>
  
</svg>
